<svg xmlns="http://www.w3.org/2000/svg" xmlns:xlink="http://www.w3.org/1999/xlink" version="1.1" x="0px" y="0px" viewBox="0 0 64 80" style="enable-background:new 0 0 64 64;" xml:space="preserve"><path d="M40.9,33.3c-1.2-3.1-4.2-5-7.9-5.1c-1.8-0.1-3.6,0.4-5.1,1.2c-1.7,0.9-3,2.2-3.7,3.9c-1.2,2.6-2.8,5.1-5.4,8.4  c-0.8,1-1.2,2.3-1.2,3.7c0,1.2,0.4,2.5,1.1,3.5c1.3,2,3.4,2.8,5.4,2.3c1.7-0.5,4.5-1.6,5.8-2.3c1.7-0.9,3.5-0.9,5.2,0  c1.4,0.7,4.1,1.8,5.8,2.3c0.4,0.1,0.8,0.2,1.2,0.2c1.6,0,3.1-0.9,4.2-2.4c0.7-1,1.1-2.3,1.1-3.5c0-1.4-0.4-2.6-1.2-3.7  C44.1,38.9,42,36.2,40.9,33.3z"/><path d="M21.9,27.2c0.7,0.5,1.4,0.9,2.1,1c0.3,0.1,0.6,0.1,1,0.1c0.5,0,0.9-0.1,1.4-0.2c0.7-0.3,1.4-0.8,1.9-1.4  c0.4-0.6,0.8-1.3,1-2.2c0.4-1.6,0.2-3.5-0.5-5.3c-0.7-1.8-1.8-3.3-3.1-4.3c-0.7-0.5-1.4-0.9-2.1-1c-0.8-0.2-1.6-0.1-2.3,0.1  c-0.7,0.3-1.4,0.8-1.9,1.4c-0.4,0.6-0.8,1.3-1,2.2c-0.4,1.6-0.2,3.5,0.5,5.3C19.5,24.7,20.6,26.2,21.9,27.2z"/><path d="M34.7,25.6c0.5,0.7,1.1,1.1,1.9,1.4c0.4,0.2,0.9,0.2,1.4,0.2c0.3,0,0.6,0,1-0.1c0.7-0.2,1.4-0.5,2.1-1  c1.3-1,2.4-2.5,3.1-4.3c0.7-1.8,0.8-3.7,0.5-5.3c-0.2-0.8-0.5-1.6-1-2.2c-0.5-0.7-1.1-1.1-1.9-1.4c-0.7-0.3-1.5-0.3-2.3-0.1  c-0.7,0.2-1.4,0.5-2.1,1c-1.3,1-2.4,2.5-3.1,4.3c-0.7,1.8-0.8,3.7-0.5,5.3C33.9,24.3,34.3,25,34.7,25.6z"/><path d="M19.9,35.1c0.2-0.6,0.2-1.3,0.2-2c-0.2-1.4-0.8-2.9-1.7-4.3c-1-1.4-2.2-2.4-3.5-3c-0.7-0.3-1.3-0.5-2-0.5  c-0.7,0-1.4,0.2-1.9,0.6c-0.5,0.4-0.9,1-1.2,1.7c-0.2,0.6-0.2,1.3-0.2,2c0.2,1.4,0.8,2.9,1.7,4.3c1,1.4,2.2,2.4,3.5,3  c0.7,0.3,1.3,0.5,2,0.5c0,0,0.1,0,0.1,0c0.7,0,1.3-0.2,1.8-0.6C19.3,36.4,19.7,35.8,19.9,35.1z"/><path d="M54.2,25.9c-0.2-0.7-0.6-1.3-1.2-1.7c-0.5-0.4-1.2-0.6-1.9-0.6c-0.6,0-1.3,0.2-2,0.5c-1.3,0.6-2.5,1.7-3.5,3h0  c-1,1.4-1.6,2.9-1.7,4.3c-0.1,0.7,0,1.4,0.2,2c0.2,0.7,0.6,1.3,1.2,1.7c0.5,0.4,1.2,0.6,1.8,0.6c0,0,0.1,0,0.1,0  c0.6,0,1.3-0.2,2-0.5c1.3-0.6,2.5-1.7,3.5-3c1-1.4,1.6-2.9,1.7-4.3C54.5,27.2,54.4,26.5,54.2,25.9z"/><text x="0" y="79" fill="#000000" font-size="5px" font-weight="bold" font-family="'Helvetica Neue', Helvetica, Arial-Unicode, Arial, Sans-serif">Created by Hasanudin</text><text x="0" y="84" fill="#000000" font-size="5px" font-weight="bold" font-family="'Helvetica Neue', Helvetica, Arial-Unicode, Arial, Sans-serif">from the Noun Project</text></svg>