<svg xmlns="http://www.w3.org/2000/svg" xmlns:xlink="http://www.w3.org/1999/xlink" version="1.1" x="0px" y="0px" viewBox="0 0 128 160" style="enable-background:new 0 0 128 128;" xml:space="preserve"><g><path d="M75,89.9v16.724c8.609-7.169,17.419-16.632,23.44-26.923C92.134,85.654,83.848,89.321,75,89.9z"/><path d="M92.5,109c0.852,0,1.69,0.115,2.5,0.32V88.476c-1.583,2.142-3.259,4.225-5,6.237v14.609   C90.798,109.118,91.634,109,92.5,109z"/><path d="M54.988,42.365c-6.823,4.054-12.785,8.457-17.896,13.009C38.2,71.636,50.786,85.162,67.147,87.602   C67.638,87.675,68,88.096,68,88.591v20.731c0.798-0.204,1.634-0.322,2.5-0.322c0.852,0,1.69,0.115,2.5,0.32V88.952   c0-0.537,0.424-0.978,0.96-0.999c11.497-0.46,22.089-6.426,28.353-15.963c0.467-1.111,0.896-2.227,1.274-3.318l0.009,0.003   c1.418-4.09,2.279-8.226,2.404-12.325c0.031-1.032,0.049-2.046,0.058-3.046C100.426,57.468,93.059,60,85,60   C71.256,60,59.51,52.65,54.988,42.365z"/><path d="M74.585,112.104C73.372,111.382,71.958,111,70.5,111c-4.136,0-7.5,3.081-7.5,6.869c0,0.734,0.123,1.448,0.366,2.131H68v-6   c0-0.553,0.447-1,1-1s1,0.447,1,1v6h2v-6c0-0.553,0.447-1,1-1s1,0.447,1,1v6h3.634c0.243-0.683,0.366-1.396,0.366-2.131   C78,115.538,76.724,113.384,74.585,112.104z"/><path d="M96.585,112.104C95.372,111.382,93.958,111,92.5,111c-4.136,0-7.5,3.081-7.5,6.869c0,0.734,0.123,1.448,0.366,2.131H90v-6   c0-0.553,0.447-1,1-1s1,0.447,1,1v6h2v-6c0-0.553,0.447-1,1-1s1,0.447,1,1v6h3.634c0.243-0.683,0.366-1.396,0.366-2.131   C100,115.538,98.724,113.384,96.585,112.104z"/><path d="M54.998,23.613c1.951-4.424,5.239-8.301,9.447-11.285c-3.471-3.924-4.706-4.292-4.923-4.325   c-8.395,4.254-13.94,8.323-14.485,10.631c-0.077,0.324-0.037,0.562,0.134,0.792C47.041,21.948,52.275,23.146,54.998,23.613z"/><path d="M12.284,115.038c-3.737-0.919-6.399-4.574-6.859-9.533c-0.105-1.144,0.319-1.968,0.694-2.694   c0.103-0.199,0.202-0.392,0.287-0.585c-0.261-0.116-0.629-0.217-0.861-0.228c-1.938,2.452-2.816,5.586-2.473,8.854   C3.64,116.238,7.192,120,11.714,120c1.155,0,2.189-0.065,3.142-0.183c-1.219-1.122-2.108-2.614-2.488-4.346   C12.338,115.332,12.313,115.179,12.284,115.038z"/><path d="M52.585,112.104C51.372,111.382,49.958,111,48.5,111c-4.136,0-7.5,3.081-7.5,6.869c0,0.734,0.123,1.448,0.366,2.131H46v-6   c0-0.553,0.447-1,1-1s1,0.447,1,1v6h2v-6c0-0.553,0.447-1,1-1s1,0.447,1,1v6h3.634c0.243-0.683,0.366-1.396,0.366-2.131   C56,115.538,54.724,113.384,52.585,112.104z"/><path d="M47.259,109.085C47.743,106.769,48,104.392,48,102c0-15.217-10.147-28.603-24.214-32.097   c-7.035,9.641-10.548,18.974-10.787,26.13c-0.21,6.424,0.089,12.069,0.888,16.78c0.132,0.767,0.276,1.511,0.435,2.229   c0.641,2.919,3.177,4.958,6.169,4.958h18.796c-0.183-0.692-0.286-1.403-0.286-2.131C39,113.372,42.606,109.655,47.259,109.085z"/><path d="M66,110.061V89.442C49.652,86.62,37.049,73.28,35.236,57.069c-3.912,3.659-7.29,7.394-10.149,11.101   C39.611,72.191,50,86.166,50,102c0,2.378-0.243,4.742-0.696,7.053c1.531,0.12,3.008,0.561,4.306,1.334   c2.749,1.645,4.39,4.441,4.39,7.482c0,0.157-0.017,0.311-0.025,0.467c1.041-0.574,2.09-1.173,3.146-1.808   C61.578,113.731,63.429,111.358,66,110.061z"/><path d="M70,22c-4.072,0-7.436,3.06-7.931,7h15.861C77.436,25.06,74.072,22,70,22z"/><path d="M100,33c1.302,0,2.402-0.839,2.816-2h-5.631C97.598,32.161,98.698,33,100,33z"/><path d="M100,38c4.072,0,7.436-3.06,7.931-7h-3.032c-0.465,2.279-2.484,4-4.899,4s-4.434-1.721-4.899-4h-3.032   C92.564,34.94,95.928,38,100,38z"/><path d="M85,8C68.458,8,55,19.215,55,33c0,6.16,2.693,11.803,7.141,16.165c1.921-3.687,4.625-6.803,7.84-9.166   C64.476,39.989,60,35.507,60,30c0-5.514,4.486-10,10-10s10,4.486,10,10c0,2.265-0.766,4.349-2.04,6.027   C80.224,35.36,82.588,35,85,35s4.776,0.36,7.04,1.027C90.766,34.349,90,32.265,90,30c0-5.514,4.486-10,10-10s10,4.486,10,10   c0,5.507-4.476,9.989-9.981,9.999c3.215,2.363,5.919,5.479,7.84,9.166C112.307,44.803,115,39.16,115,33C115,19.215,101.542,8,85,8z   "/><path d="M124.963,18.634c-0.545-2.308-6.094-6.379-14.485-10.631c-0.217,0.033-1.451,0.401-4.922,4.325   c4.208,2.984,7.496,6.861,9.447,11.285c2.723-0.467,7.956-1.665,9.826-4.187C125,19.195,125.04,18.958,124.963,18.634z"/><path d="M100,22c-4.072,0-7.436,3.06-7.931,7h15.861C107.436,25.06,104.072,22,100,22z"/><path d="M90.813,37.769c0.316,0.646,0.217,1.451-0.312,1.988l-3.236,3.291c-0.36,0.365-0.795,0.619-1.265,0.776v4.296   c3.49,0.754,6.112,5.302,6.8,9.018c5.199-1.168,9.844-3.471,13.524-6.574C103.146,44.134,97.423,39.506,90.813,37.769z"/><path d="M63.676,50.564c3.68,3.102,8.325,5.406,13.524,6.574c0.688-3.716,3.31-8.263,6.8-9.018v-4.296   c-0.47-0.157-0.905-0.411-1.265-0.776l-3.236-3.291c-0.529-0.538-0.628-1.342-0.312-1.988   C72.577,39.506,66.854,44.134,63.676,50.564z"/><path d="M70,38c4.072,0,7.436-3.06,7.931-7h-3.032c-0.465,2.279-2.484,4-4.899,4s-4.434-1.721-4.899-4h-3.032   C62.564,34.94,65.928,38,70,38z"/><path d="M79.158,57.521C81.049,57.833,83.001,58,85,58s3.951-0.167,5.842-0.479C90.212,53.993,87.58,50,85,50   S79.788,53.993,79.158,57.521z"/><path d="M70,33c1.302,0,2.402-0.839,2.816-2h-5.631C67.598,32.161,68.698,33,70,33z"/><path d="M85,37c-1.454,0-2.826,0.545-3.893,1.54l3.054,3.105c0.449,0.457,1.229,0.457,1.678,0l3.054-3.105   C87.826,37.545,86.454,37,85,37z"/></g><text x="0" y="143" fill="#000000" font-size="5px" font-weight="bold" font-family="'Helvetica Neue', Helvetica, Arial-Unicode, Arial, Sans-serif">Created by Amethyst Studio</text><text x="0" y="148" fill="#000000" font-size="5px" font-weight="bold" font-family="'Helvetica Neue', Helvetica, Arial-Unicode, Arial, Sans-serif">from the Noun Project</text></svg>