<svg xmlns="http://www.w3.org/2000/svg" xmlns:xlink="http://www.w3.org/1999/xlink" version="1.1" x="0px" y="0px" viewBox="0 0 100 125" enable-background="new 0 0 100 100" xml:space="preserve"><g><path fill="none" d="M38.967,31.16l-3.063-5.707c-0.005-0.01-0.011-0.018-0.015-0.029l-9.849-18.35   c-0.372-0.69-1.061-1.105-1.845-1.109c-0.004,0-0.008,0-0.01,0c-0.78,0-1.469,0.407-1.845,1.091L15.813,18.94   c-2.803,5.104-3.207,11.146-1.107,16.574l4.075,10.541L38.967,31.16z"/><circle fill="none" cx="33.758" cy="51.171" r="3.653"/><path fill="none" d="M50.169,48.913l10.677-17.849l2.861-5.329c-0.213-0.007-0.423-0.024-0.638-0.024H37.136l2.874,5.354   L50.169,48.913z"/><path fill="none" d="M21.725,61.128L18.1,46.968l-1.071-2.771c-1.603,4.462-3.541,10.003-5.303,15.087L21.725,61.128z"/><path fill="none" d="M64.927,25.497l-3.039,5.662l20.188,14.895l0.882-2.283c0.004-0.009,0.006-0.018,0.01-0.027l3.181-8.231   c2.099-5.429,1.696-11.47-1.106-16.574L78.515,7.057c-0.375-0.685-1.065-1.092-1.844-1.092c-0.004,0-0.008,0-0.011,0   c-0.784,0.004-1.473,0.419-1.844,1.109l-9.886,18.417C64.929,25.493,64.928,25.495,64.927,25.497z"/><path fill="none" d="M79.321,61.087l8.951-1.818c-1.614-4.652-3.374-9.687-4.889-13.924l-0.627,1.623L79.321,61.087z"/><path fill="none" d="M53.751,67.094h-7.502c-1.055,0-1.975,0.559-2.463,1.495c-0.487,0.937-0.417,2.012,0.189,2.876l3.751,5.348   c0.527,0.752,1.355,1.182,2.273,1.182c0.918,0,1.747-0.431,2.274-1.182l3.751-5.348c0.606-0.864,0.676-1.94,0.189-2.876   C55.727,67.653,54.807,67.094,53.751,67.094z"/><circle fill="none" cx="66.242" cy="51.171" r="3.653"/><path fill="none" d="M78.77,62.181c-0.032,0.007-0.064,0.009-0.096,0.009c-0.13,0-0.255-0.053-0.347-0.148   c-0.114-0.119-0.16-0.288-0.12-0.448l3.548-14.581L61.407,32.002L50.572,50.116c-0.087,0.145-0.244,0.234-0.413,0.234   c-0.002,0-0.004,0-0.006,0c-0.171-0.002-0.328-0.094-0.413-0.244L39.439,32.009L19.106,47.011l3.739,14.608   c0.04,0.159-0.003,0.328-0.115,0.448c-0.092,0.099-0.22,0.153-0.352,0.153c-0.029,0-0.058-0.003-0.087-0.008l-10.884-2.007   c-2.18,6.294-4.032,11.714-4.542,13.209l43.561,20.572l42.71-20.582c-0.509-1.491-2.364-6.917-4.546-13.216L78.77,62.181z    M33.758,55.788c-2.545,0-4.617-2.071-4.617-4.617c0-2.545,2.071-4.617,4.617-4.617c2.545,0,4.617,2.071,4.617,4.617   C38.375,53.717,36.304,55.788,33.758,55.788z M56.813,72.019l-3.751,5.348c-0.709,1.012-1.826,1.592-3.062,1.592   c-1.236,0-2.353-0.58-3.062-1.592l-3.751-5.348c-0.816-1.164-0.911-2.613-0.255-3.874c0.656-1.261,1.895-2.014,3.317-2.014h7.502   c1.421,0,2.661,0.753,3.317,2.014C57.725,69.406,57.63,70.854,56.813,72.019z M66.242,55.788c-2.545,0-4.617-2.071-4.617-4.617   c0-2.545,2.071-4.617,4.617-4.617s4.617,2.071,4.617,4.617C70.859,53.717,68.787,55.788,66.242,55.788z"/><path d="M94.186,73.496c-0.063-0.182-6.226-18.261-10.272-29.526l3.134-8.109c2.201-5.696,1.779-12.033-1.161-17.386L79.36,6.593   c-0.548-0.998-1.552-1.592-2.688-1.592c-0.006,0-0.01,0-0.016,0c-1.143,0.006-2.147,0.61-2.687,1.617l-9.754,18.171   c-0.38-0.022-0.76-0.042-1.145-0.042H36.931c-0.104,0-0.207,0.003-0.31,0.004L26.888,6.619c-0.541-1.007-1.545-1.612-2.688-1.617   c-1.133-0.038-2.154,0.588-2.704,1.592l-6.527,11.884c-2.939,5.353-3.363,11.689-1.162,17.385l2.692,6.963   C12.471,53.979,5.88,73.316,5.814,73.51c-0.079,0.231,0.029,0.486,0.25,0.591l44.158,20.853C50.288,94.985,50.358,95,50.428,95   c0.071,0,0.143-0.016,0.209-0.048l43.302-20.867C94.159,73.98,94.264,73.727,94.186,73.496z M88.272,59.269l-8.951,1.818   l3.434-14.119l0.627-1.623C84.898,49.582,86.658,54.617,88.272,59.269z M74.817,7.074c0.371-0.69,1.06-1.105,1.844-1.109   c0.004,0,0.008,0,0.011,0c0.779,0,1.468,0.407,1.844,1.092l6.528,11.883c2.802,5.104,3.206,11.145,1.106,16.574l-3.181,8.231   c-0.004,0.009-0.006,0.018-0.01,0.027l-0.882,2.283L61.888,31.16l3.039-5.662c0.001-0.002,0.002-0.004,0.004-0.007L74.817,7.074z    M63.069,25.71c0.215,0,0.425,0.016,0.638,0.024l-2.861,5.329L50.169,48.913l-10.16-17.848l-2.874-5.354H63.069z M15.813,18.94   L22.34,7.056c0.375-0.684,1.065-1.091,1.845-1.091c0.003,0,0.007,0,0.01,0c0.784,0.004,1.473,0.419,1.845,1.109l9.849,18.35   c0.004,0.01,0.01,0.019,0.015,0.029l3.063,5.707L18.781,46.054l-4.075-10.541C12.606,30.085,13.01,24.044,15.813,18.94z    M18.1,46.968l3.624,14.16l-9.999-1.844c1.762-5.083,3.7-10.624,5.303-15.087L18.1,46.968z M50.426,93.985L6.865,73.414   c0.511-1.495,2.363-6.916,4.542-13.209l10.884,2.007c0.029,0.006,0.058,0.008,0.087,0.008c0.132,0,0.26-0.055,0.352-0.153   c0.112-0.119,0.155-0.289,0.115-0.448l-3.739-14.608l20.333-15.002L49.74,50.107c0.085,0.15,0.242,0.242,0.413,0.244   c0.002,0,0.004,0,0.006,0c0.169,0,0.326-0.089,0.413-0.234l10.835-18.114l20.347,15.012l-3.548,14.581   c-0.04,0.16,0.007,0.329,0.12,0.448c0.092,0.095,0.217,0.148,0.347,0.148c0.032,0,0.064-0.003,0.096-0.009l9.82-1.994   c2.182,6.298,4.037,11.725,4.546,13.216L50.426,93.985z"/><path d="M33.758,46.555c-2.545,0-4.617,2.071-4.617,4.617c0,2.545,2.071,4.617,4.617,4.617c2.545,0,4.617-2.071,4.617-4.617   C38.375,48.626,36.304,46.555,33.758,46.555z M33.758,54.825c-2.015,0-3.653-1.639-3.653-3.653c0-2.015,1.639-3.653,3.653-3.653   c2.015,0,3.653,1.639,3.653,3.653C37.412,53.186,35.773,54.825,33.758,54.825z"/><path d="M66.242,46.555c-2.545,0-4.617,2.071-4.617,4.617c0,2.545,2.071,4.617,4.617,4.617s4.617-2.071,4.617-4.617   C70.859,48.626,68.787,46.555,66.242,46.555z M66.242,54.825c-2.015,0-3.653-1.639-3.653-3.653c0-2.015,1.639-3.653,3.653-3.653   s3.653,1.639,3.653,3.653C69.895,53.186,68.257,54.825,66.242,54.825z"/><path d="M53.751,66.131h-7.502c-1.421,0-2.661,0.753-3.317,2.014c-0.657,1.26-0.562,2.709,0.255,3.874l3.751,5.348   c0.709,1.012,1.826,1.592,3.062,1.592c1.236,0,2.353-0.58,3.062-1.592l3.751-5.348c0.816-1.164,0.911-2.613,0.255-3.874   C56.412,66.884,55.173,66.131,53.751,66.131z M56.025,71.465l-3.751,5.348c-0.527,0.752-1.355,1.182-2.274,1.182   c-0.918,0-1.747-0.431-2.273-1.182l-3.751-5.348c-0.606-0.864-0.676-1.94-0.189-2.876c0.487-0.936,1.407-1.495,2.463-1.495h7.502   c1.055,0,1.975,0.559,2.463,1.495C56.701,69.526,56.631,70.601,56.025,71.465z"/></g><text x="0" y="115" fill="#000000" font-size="5px" font-weight="bold" font-family="'Helvetica Neue', Helvetica, Arial-Unicode, Arial, Sans-serif">Created by Alena Artemova</text><text x="0" y="120" fill="#000000" font-size="5px" font-weight="bold" font-family="'Helvetica Neue', Helvetica, Arial-Unicode, Arial, Sans-serif">from the Noun Project</text></svg>